<svg aria-hidden="true" style="position: absolute; width: 0; height: 0; overflow: hidden;" version="1.1" xmlns="http://www.w3.org/2000/svg" xmlns:xlink="http://www.w3.org/1999/xlink">
<defs>

<symbol id="faceboock" viewBox="0 0 14 32">
<path fill="#fff" style="fill: var(--color1, #fff)" d="M11.804 0.854c0.32 0 0.64 0 1.28 0v4.8c-0.32 0-0.96 0-1.6 0s-1.28 0-1.6 0.32c-0.32 0.32-0.32 0.64-0.32 1.387 0 0.64 0 1.067 0 1.707h3.52v4.053h-3.52v17.6h-5.44v-17.707h-2.88v-4.053h2.88v-1.387c0-2.347 0.32-4.053 0.96-4.8 0.96-1.387 2.88-2.027 5.76-2.027 0.32 0.107 0.64 0.107 0.96 0.107z"></path>
</symbol>

<symbol id="instagram" viewBox="0 0 32 32">
<path fill="#fff" style="fill: var(--color1, #fff)" d="M31.261 9.707c-0.019-1.289-0.258-2.568-0.715-3.774-0.8-2.059-2.429-3.687-4.492-4.484-1.192-0.448-2.453-0.688-3.729-0.715-1.641-0.073-2.161-0.094-6.327-0.094s-4.7 0-6.329 0.094c-1.274 0.027-2.535 0.267-3.727 0.715-2.062 0.797-3.693 2.425-4.492 4.484-0.449 1.19-0.691 2.449-0.715 3.721-0.073 1.64-0.096 2.159-0.096 6.318s0 4.69 0.096 6.318c0.026 1.274 0.266 2.531 0.715 3.724 0.8 2.057 2.429 3.686 4.493 4.483 1.187 0.463 2.448 0.725 3.727 0.766 1.643 0.073 2.163 0.095 6.329 0.095s4.7 0 6.329-0.095c1.274-0.026 2.535-0.266 3.729-0.714 2.062-0.799 3.692-2.427 4.492-4.484 0.449-1.192 0.689-2.449 0.715-3.725 0.073-1.638 0.096-2.158 0.096-6.318-0.003-4.159-0.003-4.687-0.099-6.317zM15.988 23.838c-4.357 0-7.886-3.524-7.886-7.873s3.53-7.873 7.886-7.873c4.354 0 7.886 3.524 7.886 7.873s-3.533 7.873-7.886 7.873zM24.188 9.636c-1.018 0-1.839-0.821-1.839-1.836s0.82-1.836 1.839-1.836c1.015 0 1.837 0.821 1.837 1.836s-0.822 1.836-1.837 1.836z"></path>
</symbol>

<symbol id="youtube" viewBox="0 0 44 32">
<path fill="#fff" style="fill: var(--color1, #fff)" d="M34.36 1c-2.040-0.12-6.24-0.24-12.6-0.24h-0.84c-6.12 0-10.2 0.12-12.24 0.36-2.76 0.24-4.68 0.96-5.76 1.92-0.96 0.84-1.68 2.4-1.92 4.44-0.12 1.32-0.24 4.080-0.24 8.28v0.6c0 3.96 0.12 6.72 0.36 8.040 0.36 1.92 0.96 3.36 2.16 4.2 1.2 0.96 3.24 1.56 6.12 1.8 2.040 0.12 6.24 0.24 12.6 0.24h0.84c6.12 0 10.2-0.12 12.24-0.36 2.76-0.24 4.68-0.96 5.76-1.92 0.96-0.84 1.68-2.4 1.92-4.44 0.12-1.32 0.24-4.080 0.24-8.28v-0.6c0-3.96-0.12-6.72-0.36-8.040-0.36-1.92-0.96-3.36-2.16-4.2-1.2-0.96-3.24-1.56-6.12-1.8zM29.68 15.76l-13.2 7.92v-15.84l13.2 7.92z"></path>
</symbol>

</defs>
</svg>
